# xmcd
#
# Track frame offsets: 
#        150
#        16431
#        33475
#        51808
#        75221
#        96223
#        111651
#        133777
#        156921
#        181303
#        205769
#
# Disc length: 2936 seconds
#
# Revision: 1
# Processed by: cddbd v1.5.2PL0 Copyright (c) Steve Scherf et al.
# Submitted via: ExactAudioCopy v0.99pb5
#
DISCID=8e0b760b
DTITLE=Ben Taylor - Another Run Around The Sun
DYEAR=2006
DGENRE=Folk-Rock
TTITLE0=Nothing I Can Do
TTITLE1=Always
TTITLE2=Someday Soon
TTITLE3=One Man Day
TTITLE4=Digest
TTITLE5=You Must Have Fallen
TTITLE6=Think A Man Would Know
TTITLE7=I'll Be Fine
TTITLE8=Surround Me
TTITLE9=Love
TTITLE10=Lady Magic
EXTD=
EXTT0=
EXTT1=
EXTT2=
EXTT3=
EXTT4=
EXTT5=
EXTT6=
EXTT7=
EXTT8=
EXTT9=
EXTT10=
PLAYORDER=
